<mxfile host="Electron" agent="Mozilla/5.0 (Windows NT 10.0; Win64; x64) AppleWebKit/537.36 (KHTML, like Gecko) draw.io/24.7.17 Chrome/128.0.6613.36 Electron/32.0.1 Safari/537.36" version="24.7.17">
  <diagram name="ページ1" id="qOj-iABUYwjQEYT9X83D">
    <mxGraphModel dx="1863" dy="1776" grid="1" gridSize="10" guides="1" tooltips="1" connect="1" arrows="1" fold="1" page="1" pageScale="1" pageWidth="827" pageHeight="1169" math="1" shadow="0">
      <root>
        <mxCell id="0" />
        <mxCell id="1" parent="0" />
        <mxCell id="oDsNhc0ME9R0H4C5H8wn-3" value="" style="rounded=0;whiteSpace=wrap;html=1;gradientColor=default;aspect=fixed;" parent="1" vertex="1">
          <mxGeometry x="-240" y="-80" width="728.74" height="420" as="geometry" />
        </mxCell>
        <mxCell id="oDsNhc0ME9R0H4C5H8wn-6" value="$$\rm{N}$$" style="text;html=1;align=center;verticalAlign=middle;resizable=0;points=[];autosize=1;strokeColor=none;fillColor=none;rotation=0;fontSize=30;" parent="1" vertex="1">
          <mxGeometry x="-230" y="70" width="180" height="50" as="geometry" />
        </mxCell>
        <mxCell id="DyVXIBPduJxvdO734y2P-1" value="$$\rm{C}$$" style="text;html=1;align=center;verticalAlign=middle;resizable=0;points=[];autosize=1;strokeColor=none;fillColor=none;rotation=0;fontSize=30;" vertex="1" parent="1">
          <mxGeometry y="-10" width="180" height="50" as="geometry" />
        </mxCell>
        <mxCell id="DyVXIBPduJxvdO734y2P-2" value="$$\rm{Wb}$$" style="text;html=1;align=center;verticalAlign=middle;resizable=0;points=[];autosize=1;strokeColor=none;fillColor=none;rotation=0;fontSize=30;" vertex="1" parent="1">
          <mxGeometry x="200" y="70" width="200" height="50" as="geometry" />
        </mxCell>
        <mxCell id="DyVXIBPduJxvdO734y2P-3" value="$$\rm{V}$$" style="text;html=1;align=center;verticalAlign=middle;resizable=0;points=[];autosize=1;strokeColor=none;fillColor=none;rotation=0;fontSize=30;" vertex="1" parent="1">
          <mxGeometry x="-185" y="-60" width="170" height="50" as="geometry" />
        </mxCell>
        <mxCell id="DyVXIBPduJxvdO734y2P-4" value="$$\rm{F}$$" style="text;html=1;align=center;verticalAlign=middle;resizable=0;points=[];autosize=1;strokeColor=none;fillColor=none;rotation=0;fontSize=30;" vertex="1" parent="1">
          <mxGeometry x="280" y="-40" width="170" height="50" as="geometry" />
        </mxCell>
        <mxCell id="DyVXIBPduJxvdO734y2P-5" value="$$\rm{J}$$" style="text;html=1;align=center;verticalAlign=middle;resizable=0;points=[];autosize=1;strokeColor=none;fillColor=none;rotation=0;fontSize=30;" vertex="1" parent="1">
          <mxGeometry x="39.370000000000005" y="160" width="170" height="50" as="geometry" />
        </mxCell>
        <mxCell id="DyVXIBPduJxvdO734y2P-7" value="$$\rm{Hz}$$" style="text;html=1;align=center;verticalAlign=middle;resizable=0;points=[];autosize=1;strokeColor=none;fillColor=none;rotation=0;fontSize=30;" vertex="1" parent="1">
          <mxGeometry x="-195" y="170" width="190" height="50" as="geometry" />
        </mxCell>
        <mxCell id="DyVXIBPduJxvdO734y2P-8" value="$$\rm{W}$$" style="text;html=1;align=center;verticalAlign=middle;resizable=0;points=[];autosize=1;strokeColor=none;fillColor=none;rotation=0;fontSize=30;" vertex="1" parent="1">
          <mxGeometry x="-55" y="70" width="180" height="50" as="geometry" />
        </mxCell>
        <mxCell id="DyVXIBPduJxvdO734y2P-9" value="$$\rm{\Omega}$$" style="text;html=1;align=center;verticalAlign=middle;resizable=0;points=[];autosize=1;strokeColor=none;fillColor=none;rotation=0;fontSize=30;" vertex="1" parent="1">
          <mxGeometry x="164.37" y="170" width="260" height="50" as="geometry" />
        </mxCell>
      </root>
    </mxGraphModel>
  </diagram>
</mxfile>
